<?xml version="1.0" standalone="no"?>
<!DOCTYPE svg PUBLIC "-//W3C//DTD SVG 20010904//EN"
 "http://www.w3.org/TR/2001/REC-SVG-20010904/DTD/svg10.dtd">
<svg version="1.0" xmlns="http://www.w3.org/2000/svg"
 width="590.000000pt" height="590.000000pt" viewBox="0 0 590.000000 590.000000"
 preserveAspectRatio="xMidYMid meet">
<metadata>
Created by potrace 1.11, written by Peter Selinger 2001-2013
</metadata>
<g transform="translate(0.000000,590.000000) scale(0.100000,-0.100000)"
fill="#000000" stroke="none">
<path d="M2720 5375 c0 -8 0 -18 1 -21 2 -17 -42 -19 -369 -18 l-351 1 -73
-74 -72 -73 -58 0 -58 0 0 -90 0 -90 -187 -2 -188 -3 -147 -255 c-81 -140
-170 -293 -197 -340 -82 -141 -337 -584 -365 -634 -14 -26 -32 -57 -40 -69 -8
-12 -27 -45 -43 -72 -22 -40 -111 -195 -168 -293 -95 -164 -104 -183 -123
-267 -12 -49 -23 -101 -26 -115 -2 -14 -16 -77 -31 -142 l-26 -116 53 -137 53
-137 115 -37 c63 -20 166 -52 228 -71 l113 -35 -5 -45 c-3 -25 -8 -56 -11 -70
-2 -13 -7 -42 -10 -65 -4 -22 -10 -56 -15 -75 -13 -52 -38 -216 -45 -290 -4
-36 -8 -76 -10 -90 -2 -14 -7 -54 -10 -90 -4 -36 -9 -81 -10 -100 -2 -19 -7
-62 -10 -95 -3 -33 -7 -73 -9 -90 -3 -16 -8 -61 -11 -100 -4 -38 -9 -73 -11
-77 -3 -4 0 -9 5 -12 5 -3 6 -21 1 -40 -7 -31 -5 -35 16 -40 22 -6 24 -12 24
-61 0 -41 4 -55 14 -55 17 0 25 -18 18 -41 -3 -13 -17 -17 -65 -17 -105 0 -99
2 -94 -37 7 -54 -6 -63 -138 -90 -11 -2 -100 -22 -197 -44 -98 -23 -179 -41
-180 -41 -2 0 -3 -23 -3 -50 l-1 -50 56 0 c94 -1 1201 -1 1485 0 l270 0 1 49
1 50 -66 15 c-36 9 -77 18 -91 20 -14 2 -54 11 -90 20 -36 8 -78 18 -95 21
-16 3 -66 13 -110 23 l-79 18 3 47 c2 34 -1 47 -11 48 -7 0 -43 0 -79 0 -62 0
-67 2 -71 24 -6 30 1 41 27 40 11 0 21 7 21 15 1 8 2 23 3 32 1 11 6 15 16 12
11 -5 15 1 16 22 1 16 1 33 0 37 -1 5 8 6 19 2 11 -3 20 -3 21 2 0 4 2 17 3
28 2 11 6 52 10 90 4 39 9 81 11 95 2 14 6 48 9 75 3 28 10 88 16 135 14 124
20 179 25 235 3 28 9 77 14 110 6 33 13 83 15 110 3 28 11 75 17 105 6 30 11
61 12 68 0 6 7 12 15 12 34 0 342 -106 342 -117 0 -8 14 -13 35 -13 l35 0 0
-310 0 -310 1143 2 1142 3 2 275 c1 151 2 285 2 296 1 19 28 31 206 94 113 40
207 71 210 69 4 -5 53 -237 60 -289 3 -19 8 -57 10 -84 6 -55 13 -114 20 -166
2 -19 7 -57 10 -85 3 -27 7 -66 10 -85 2 -19 7 -60 10 -91 3 -31 7 -65 9 -76
2 -10 7 -49 10 -85 4 -37 9 -76 11 -89 2 -12 5 -39 7 -61 1 -28 6 -38 17 -37
35 3 41 -1 37 -26 -3 -17 0 -25 10 -25 8 0 14 -10 14 -23 0 -22 -3 -23 -72
-22 l-73 1 -5 -50 -5 -49 -125 -28 c-69 -16 -174 -40 -235 -54 -60 -14 -119
-28 -130 -30 -18 -4 -21 -12 -21 -55 l0 -50 905 0 906 0 0 48 c0 38 -4 49 -20
55 -18 7 -311 74 -435 98 -77 16 -77 15 -74 63 1 27 -2 46 -9 49 -7 2 -42 3
-79 2 -64 -1 -68 0 -68 21 0 16 7 24 23 26 20 3 22 7 19 61 -3 54 -1 57 20 57
48 0 53 20 33 120 -3 14 -8 48 -11 75 -3 28 -7 59 -9 70 -11 80 -26 187 -30
225 -9 74 -14 111 -24 186 -6 40 -13 96 -17 125 -3 30 -9 68 -14 84 -5 17 -11
48 -14 70 -2 22 -21 103 -41 180 -20 77 -38 144 -38 149 -1 5 72 35 163 68 91
33 205 74 254 92 l88 32 39 104 c21 58 43 112 48 121 7 12 -10 92 -60 278
l-70 261 -103 177 c-112 194 -305 527 -481 833 -61 107 -154 267 -205 355 -99
171 -100 172 -180 313 -29 51 -56 94 -60 97 -4 3 -92 5 -194 5 l-186 1 0 90 0
89 -57 0 -58 0 -69 70 c-38 39 -71 71 -75 71 -3 1 -163 3 -356 3 l-350 2 -3
27 -3 27 -235 0 c-201 0 -234 -2 -234 -15z"/>
</g>
</svg>
